{
  "accessors": [
    {
      "bufferView": 2,
      "componentType": 5126,
      "count": 1509,
      "max": [
        -2.8716583251953125,
        18.573312759399414,
        -0.55724334716796875
      ],
      "min": [
        -4.6328353881835938,
        3.5262966156005859,
        -2.1167564392089844
      ],
      "type": "VEC3"
    },
    {
      "bufferView": 2,
      "byteOffset": 18108,
      "componentType": 5126,
      "count": 1509,
      "max": [
        0.99966639280319214,
        0.87369227409362793,
        0.99991559982299805
      ],
      "min": [
        -0.99937319755554199,
        -0.93087667226791382,
        -0.99938160181045532
      ],
      "type": "VEC3"
    },
    {
      "bufferView": 1,
      "componentType": 5126,
      "count": 1509,
      "max": [
        0.82113552093505859,
        0.99878847599029541
      ],
      "min": [
        0.17608949542045593,
        0.0039510000497102737
      ],
      "type": "VEC2"
    },
    {
      "bufferView": 0,
      "componentType": 5125,
      "count": 3480,
      "max": [
        1508
      ],
      "min": [
        0
      ],
      "type": "SCALAR"
    },
    {
      "bufferView": 2,
      "byteOffset": 36216,
      "componentType": 5126,
      "count": 82,
      "max": [
        -1.473052978515625,
        4.439974308013916,
        0.93648147583007812
      ],
      "min": [
        -5.9073715209960938,
        4.354731559753418,
        -3.497833251953125
      ],
      "type": "VEC3"
    },
    {
      "bufferView": 2,
      "byteOffset": 37200,
      "componentType": 5126,
      "count": 82,
      "max": [
        1,
        1,
        1
      ],
      "min": [
        -1,
        -1,
        -1
      ],
      "type": "VEC3"
    },
    {
      "bufferView": 1,
      "byteOffset": 12072,
      "componentType": 5126,
      "count": 82,
      "max": [
        0.65625,
        1
      ],
      "min": [
        0.34374997019767761,
        -7.4505805969238281e-08
      ],
      "type": "VEC2"
    },
    {
      "bufferView": 0,
      "byteOffset": 13920,
      "componentType": 5125,
      "count": 228,
      "max": [
        81
      ],
      "min": [
        0
      ],
      "type": "SCALAR"
    },
    {
      "bufferView": 2,
      "byteOffset": 38184,
      "componentType": 5126,
      "count": 6474,
      "max": [
        4.8162684440612793,
        24.582698822021484,
        6.9636425971984863
      ],
      "min": [
        -11.977016448974609,
        10.379037857055664,
        -8.8679113388061523
      ],
      "type": "VEC3"
    },
    {
      "bufferView": 2,
      "byteOffset": 115872,
      "componentType": 5126,
      "count": 6474,
      "max": [
        0.99993228912353516,
        0.99995720386505127,
        0.99245953559875488
      ],
      "min": [
        -0.99507981538772583,
        -0.53367280960083008,
        -0.99929046630859375
      ],
      "type": "VEC3"
    },
    {
      "bufferView": 1,
      "byteOffset": 12728,
      "componentType": 5126,
      "count": 6474,
      "max": [
        0.99949997663497925,
        0.99950098991394043
      ],
      "min": [
        0.00050000002374872565,
        0.00050000002374872565
      ],
      "type": "VEC2"
    },
    {
      "bufferView": 0,
      "byteOffset": 14832,
      "componentType": 5125,
      "count": 19032,
      "max": [
        6473
      ],
      "min": [
        0
      ],
      "type": "SCALAR"
    },
    {
      "bufferView": 2,
      "byteOffset": 193560,
      "componentType": 5126,
      "count": 375,
      "max": [
        -1.0612220764160156,
        4.8026823997497559,
        1.3016357421875
      ],
      "min": [
        -6.2440338134765625,
        -0.00094380974769592285,
        -3.8811798095703125
      ],
      "type": "VEC3"
    },
    {
      "bufferView": 2,
      "byteOffset": 198060,
      "componentType": 5126,
      "count": 375,
      "max": [
        0.99299418926239014,
        0.99967187643051147,
        0.99299496412277222
      ],
      "min": [
        -0.99299448728561401,
        -1,
        -0.99299454689025879
      ],
      "type": "VEC3"
    },
    {
      "bufferView": 1,
      "byteOffset": 64520,
      "componentType": 5126,
      "count": 375,
      "max": [
        1.020827054977417,
        0.99950098991394043
      ],
      "min": [
        -0.5,
        0.043315000832080841
      ],
      "type": "VEC2"
    },
    {
      "bufferView": 0,
      "byteOffset": 90960,
      "componentType": 5125,
      "count": 1944,
      "max": [
        374
      ],
      "min": [
        0
      ],
      "type": "SCALAR"
    }
  ],
  "asset": {
    "extras": {
      "author": "3dia (https://sketchfab.com/3dia)",
      "license": "SKETCHFAB Standard (https://sketchfab.com/licenses)",
      "source": "https://sketchfab.com/3d-models/interior-tree-plant-be457d68997742ecbd5a3415ffe1fcfd",
      "title": "Interior Tree Plant"
    },
    "generator": "Sketchfab-9.94.0",
    "version": "2.0"
  },
  "bufferViews": [
    {
      "buffer": 0,
      "byteLength": 98736,
      "byteOffset": 0,
      "name": "floatBufferViews",
      "target": 34963
    },
    {
      "buffer": 0,
      "byteLength": 67520,
      "byteOffset": 98736,
      "byteStride": 8,
      "name": "floatBufferViews",
      "target": 34962
    },
    {
      "buffer": 0,
      "byteLength": 202560,
      "byteOffset": 166256,
      "byteStride": 12,
      "name": "floatBufferViews",
      "target": 34962
    }
  ],
  "buffers": [
    {
      "byteLength": 368816,
      "uri": "scene.bin"
    }
  ],
  "images": [
    {
      "uri": "textures/bark_baseColor.jpeg"
    },
    {
      "uri": "textures/leaves_baseColor.png"
    }
  ],
  "materials": [
    {
      "doubleSided": true,
      "emissiveFactor": [
        0,
        0,
        0
      ],
      "name": "bark",
      "pbrMetallicRoughness": {
        "baseColorFactor": [
          1,
          1,
          1,
          1
        ],
        "baseColorTexture": {
          "index": 0,
          "texCoord": 0
        },
        "metallicFactor": 0,
        "roughnessFactor": 0.59999999999999998
      }
    },
    {
      "doubleSided": true,
      "name": "soil",
      "pbrMetallicRoughness": {
        "baseColorFactor": [
          0.049618299999999997,
          0.049618299999999997,
          0.049618299999999997,
          1
        ],
        "metallicFactor": 0,
        "roughnessFactor": 0
      }
    },
    {
      "doubleSided": true,
      "name": "leaves",
      "pbrMetallicRoughness": {
        "baseColorFactor": [
          1,
          1,
          1,
          1
        ],
        "baseColorTexture": {
          "index": 1,
          "texCoord": 0
        },
        "metallicFactor": 0,
        "roughnessFactor": 0.74699095916829505
      }
    },
    {
      "doubleSided": true,
      "emissiveFactor": [
        0,
        0,
        0
      ],
      "name": "material",
      "pbrMetallicRoughness": {
        "baseColorFactor": [
          0.96523232239247181,
          0.96523232239247181,
          0.96523232239247181,
          1
        ],
        "metallicFactor": 0.906205621598834,
        "roughnessFactor": 0.37234303154877657
      }
    }
  ],
  "meshes": [
    {
      "name": "tree___GAME_polySurface706_bark_0",
      "primitives": [
        {
          "attributes": {
            "NORMAL": 1,
            "POSITION": 0,
            "TEXCOORD_0": 2
          },
          "indices": 3,
          "material": 0,
          "mode": 4
        }
      ]
    },
    {
      "name": "tree___GAME_polySurface706_soil_0",
      "primitives": [
        {
          "attributes": {
            "NORMAL": 5,
            "POSITION": 4,
            "TEXCOORD_0": 6
          },
          "indices": 7,
          "material": 1,
          "mode": 4
        }
      ]
    },
    {
      "name": "tree___GAME_polySurface706_leaves_0",
      "primitives": [
        {
          "attributes": {
            "NORMAL": 9,
            "POSITION": 8,
            "TEXCOORD_0": 10
          },
          "indices": 11,
          "material": 2,
          "mode": 4
        }
      ]
    },
    {
      "name": "tree___GAME_polySurface706_pot_0",
      "primitives": [
        {
          "attributes": {
            "NORMAL": 13,
            "POSITION": 12,
            "TEXCOORD_0": 14
          },
          "indices": 15,
          "material": 3,
          "mode": 4
        }
      ]
    }
  ],
  "nodes": [
    {
      "children": [
        1
      ],
      "name": "RootNode (gltf orientation matrix)",
      "rotation": [
        -0.70710678118654746,
        -0,
        -0,
        0.70710678118654757
      ]
    },
    {
      "children": [
        2
      ],
      "name": "RootNode (model correction matrix)"
    },
    {
      "children": [
        3
      ],
      "matrix": [
        1,
        0,
        0,
        0,
        0,
        0,
        1,
        0,
        0,
        -1,
        0,
        0,
        0,
        0,
        0,
        1
      ],
      "name": "4c28d588ab8b4b0984732f3ab483ad93.fbx"
    },
    {
      "children": [
        4
      ],
      "name": "RootNode"
    },
    {
      "children": [
        5,
        6,
        7,
        8
      ],
      "name": "tree___GAME_polySurface706"
    },
    {
      "mesh": 0,
      "name": "tree___GAME_polySurface706_bark_0"
    },
    {
      "mesh": 1,
      "name": "tree___GAME_polySurface706_soil_0"
    },
    {
      "mesh": 2,
      "name": "tree___GAME_polySurface706_leaves_0"
    },
    {
      "mesh": 3,
      "name": "tree___GAME_polySurface706_pot_0"
    }
  ],
  "samplers": [
    {
      "magFilter": 9729,
      "minFilter": 9987,
      "wrapS": 10497,
      "wrapT": 10497
    }
  ],
  "scene": 0,
  "scenes": [
    {
      "name": "OSG_Scene",
      "nodes": [
        0
      ]
    }
  ],
  "textures": [
    {
      "sampler": 0,
      "source": 0
    },
    {
      "sampler": 0,
      "source": 1
    }
  ]
}

